<svg width="12" height="22" viewBox="0 0 12 22" fill="none" xmlns="http://www.w3.org/2000/svg">
<path d="M11.1429 0.00457747L8.36565 0C5.2455 0 3.22911 2.12509 3.22911 5.41423V7.91055H0.436698C0.1954 7.91055 0 8.1115 0 8.35937V11.9763C0 12.2241 0.195623 12.4249 0.436698 12.4249H3.22911V21.5514C3.22911 21.7993 3.42451 22 3.66581 22H7.30911C7.55041 22 7.74581 21.799 7.74581 21.5514V12.4249H11.0108C11.2521 12.4249 11.4475 12.2241 11.4475 11.9763L11.4488 8.35937C11.4488 8.24036 11.4027 8.12638 11.3209 8.04215C11.2392 7.95793 11.1278 7.91055 11.0119 7.91055H7.74581V5.79439C7.74581 4.77728 7.98176 4.26094 9.27158 4.26094L11.1425 4.26025C11.3835 4.26025 11.5789 4.0593 11.5789 3.81166V0.453169C11.5789 0.205757 11.3838 0.00503522 11.1429 0.00457747Z" fill="#787A80"/>
</svg>
